<?xml version="1.0" standalone="no"?>
<!DOCTYPE svg PUBLIC "-//W3C//DTD SVG 20010904//EN"
 "http://www.w3.org/TR/2001/REC-SVG-20010904/DTD/svg10.dtd">
<svg version="1.0" xmlns="http://www.w3.org/2000/svg"
 width="266.000000pt" height="266.000000pt" viewBox="0 0 266.000000 266.000000"
 preserveAspectRatio="xMidYMid meet">
<metadata>
Created by potrace 1.14, written by Peter Selinger 2001-2017
</metadata>
<g transform="translate(0.000000,266.000000) scale(0.100000,-0.100000)"
fill="#000000" stroke="none">
<path d="M1262 2163 l3 -128 85 0 85 0 3 128 3 127 -91 0 -91 0 3 -127z"/>
<path d="M677 2014 c-32 -31 -57 -60 -55 -64 5 -13 139 -150 147 -150 4 0 32
26 64 58 l57 58 -78 77 -77 77 -58 -56z"/>
<path d="M1886 1991 l-76 -77 60 -59 60 -60 76 76 c50 50 73 80 69 91 -3 8
-30 36 -59 61 l-53 46 -77 -78z"/>
<path d="M1239 1845 c-97 -19 -183 -67 -260 -144 -205 -206 -205 -530 -1 -736
161 -161 398 -201 601 -101 124 60 231 184 271 314 24 76 27 211 6 287 -52
196 -221 351 -417 384 -81 14 -115 13 -200 -4z"/>
<path d="M390 1335 l0 -85 130 0 130 0 0 85 0 85 -130 0 -130 0 0 -85z"/>
<path d="M2050 1335 l0 -85 130 0 130 0 0 85 0 85 -130 0 -130 0 0 -85z"/>
<path d="M692 797 c-39 -40 -72 -77 -72 -83 0 -13 103 -114 116 -114 6 0 44
34 84 76 l73 75 -59 60 c-32 32 -61 59 -64 59 -3 0 -38 -33 -78 -73z"/>
<path d="M1869 813 l-63 -61 74 -76 c40 -42 78 -76 85 -76 13 0 115 102 115
116 0 5 -33 43 -74 83 l-75 74 -62 -60z"/>
<path d="M1267 633 c-4 -3 -7 -62 -7 -130 l0 -123 90 0 90 0 0 124 c0 104 -3
125 -16 130 -21 8 -149 8 -157 -1z"/>
</g>
</svg>
